<?xml version="1.0" standalone="no"?>
<!DOCTYPE svg PUBLIC "-//W3C//DTD SVG 20010904//EN"
 "http://www.w3.org/TR/2001/REC-SVG-20010904/DTD/svg10.dtd">
<svg version="1.0" xmlns="http://www.w3.org/2000/svg"
 width="500.000000pt" height="500.000000pt" viewBox="0 0 500.000000 500.000000"
 preserveAspectRatio="xMidYMid meet">

<g transform="translate(0.000000,500.000000) scale(0.100000,-0.100000)"
fill="#000000" stroke="none">
<path d="M845 3883 c-195 -113 -200 -115 -230 -102 -16 7 -60 14 -96 14 -57 0
-71 -4 -103 -28 -46 -35 -66 -65 -77 -117 -17 -73 27 -175 87 -202 l24 -11 0
-902 0 -901 -44 -31 c-88 -62 -125 -135 -125 -248 -2 -214 216 -351 414 -261
l61 27 739 -427 c407 -235 748 -434 758 -442 9 -8 17 -28 17 -44 0 -39 26 -97
58 -131 82 -87 220 -97 316 -23 40 30 86 117 86 163 0 31 5 36 113 98 61 36
402 234 757 440 l644 373 50 -25 c58 -29 144 -40 201 -24 22 6 62 24 89 41
l49 31 -34 29 c-45 39 -61 43 -95 25 -45 -23 -120 -19 -170 10 -67 39 -101
129 -74 199 9 24 5 30 -49 72 -52 42 -155 86 -962 413 -858 347 -904 367 -904
391 0 22 28 41 235 161 129 75 233 141 231 145 -3 5 -25 25 -50 45 l-46 36
-215 -124 c-118 -67 -223 -123 -233 -123 -10 0 -20 7 -23 15 -3 8 11 134 31
280 35 251 36 267 20 285 -21 23 -94 74 -99 69 -1 -2 -22 -143 -46 -312 -43
-306 -44 -309 -69 -319 -61 -22 -120 -109 -121 -174 0 -31 -8 -37 -583 -368
-321 -185 -588 -336 -594 -336 -6 0 -16 6 -22 14 -10 12 55 131 335 618 191
332 425 740 521 906 96 167 173 305 171 306 -2 1 -24 19 -50 40 l-46 37 -35
-58 c-29 -49 -600 -1034 -935 -1615 -67 -116 -102 -168 -114 -168 -17 0 -18
49 -18 890 l0 889 29 16 c58 29 111 133 97 189 -4 18 13 32 132 101 75 44 176
102 224 130 l87 51 -54 42 c-29 23 -55 42 -57 41 -2 0 -93 -53 -203 -116z
m2364 -2107 c487 -196 892 -361 900 -366 10 -6 -625 -10 -1615 -10 l-1632 0
-6 22 c-3 13 -2 26 2 29 4 4 267 157 585 341 l578 335 47 -24 c60 -31 136 -27
191 11 20 14 43 24 51 22 8 -2 413 -164 899 -360z m-2538 -280 c45 -30 69 -80
69 -144 0 -93 -72 -162 -170 -162 -94 0 -159 58 -168 149 -14 148 143 240 269
157z m3483 -243 c4 -9 1 -22 -6 -28 -7 -7 -339 -200 -737 -429 l-724 -416 -26
24 c-86 83 -221 86 -311 8 l-40 -34 -733 423 c-402 232 -734 424 -735 425 -2
1 -1 12 3 23 l6 21 1649 0 c1533 0 1648 -1 1654 -17z"/>
</g>
</svg>
